<?xml version="1.0" encoding="UTF-8" standalone="no"?>
<!DOCTYPE svg PUBLIC "-//W3C//DTD SVG 1.1//EN"
 "http://www.w3.org/Graphics/SVG/1.1/DTD/svg11.dtd">
<!-- Generated by graphviz version 2.42.3 (20191010.1750)
 -->
<!-- Title: %3 Pages: 1 -->
<svg width="364pt" height="265pt"
 viewBox="0.00 0.00 364.39 265.00" xmlns="http://www.w3.org/2000/svg" xmlns:xlink="http://www.w3.org/1999/xlink">
<g id="graph0" class="graph" transform="scale(1 1) rotate(0) translate(4 261)">
<title>%3</title>
<polygon fill="white" stroke="transparent" points="-4,4 -4,-261 360.39,-261 360.39,4 -4,4"/>
<!-- OriginServer -->
<g id="node1" class="node">
<title>OriginServer</title>
<polygon fill="none" stroke="black" points="267.3,-110.5 267.3,-146.5 356.39,-146.5 356.39,-110.5 267.3,-110.5"/>
<text text-anchor="middle" x="311.84" y="-124.3" font-family="Times,serif" font-size="14.00">OriginServer</text>
</g>
<!-- EdgeServer1 -->
<g id="node2" class="node">
<title>EdgeServer1</title>
<polygon fill="none" stroke="black" points="142.99,-220.5 142.99,-256.5 231.3,-256.5 231.3,-220.5 142.99,-220.5"/>
<text text-anchor="middle" x="187.15" y="-234.3" font-family="Times,serif" font-size="14.00">EdgeServer1</text>
</g>
<!-- OriginServer&#45;&gt;EdgeServer1 -->
<g id="edge1" class="edge">
<title>OriginServer&#45;&gt;EdgeServer1</title>
<path fill="none" stroke="black" d="M295.84,-146.59C280.64,-164.31 255.92,-191.47 231.3,-211.5 230.14,-212.44 228.95,-213.38 227.73,-214.3"/>
<polygon fill="black" stroke="black" points="225.54,-211.56 219.43,-220.22 229.6,-217.26 225.54,-211.56"/>
</g>
<!-- EdgeServer2 -->
<g id="node3" class="node">
<title>EdgeServer2</title>
<polygon fill="none" stroke="black" points="142.99,-165.5 142.99,-201.5 231.3,-201.5 231.3,-165.5 142.99,-165.5"/>
<text text-anchor="middle" x="187.15" y="-179.3" font-family="Times,serif" font-size="14.00">EdgeServer2</text>
</g>
<!-- OriginServer&#45;&gt;EdgeServer2 -->
<g id="edge2" class="edge">
<title>OriginServer&#45;&gt;EdgeServer2</title>
<path fill="none" stroke="black" d="M270.67,-146.51C260.18,-151.21 248.75,-156.33 237.84,-161.23"/>
<polygon fill="black" stroke="black" points="236.1,-158.17 228.41,-165.45 238.97,-164.55 236.1,-158.17"/>
</g>
<!-- EdgeServer3 -->
<g id="node4" class="node">
<title>EdgeServer3</title>
<polygon fill="none" stroke="black" points="142.99,-110.5 142.99,-146.5 231.3,-146.5 231.3,-110.5 142.99,-110.5"/>
<text text-anchor="middle" x="187.15" y="-124.3" font-family="Times,serif" font-size="14.00">EdgeServer3</text>
</g>
<!-- OriginServer&#45;&gt;EdgeServer3 -->
<g id="edge3" class="edge">
<title>OriginServer&#45;&gt;EdgeServer3</title>
<path fill="none" stroke="black" d="M267.24,-128.5C259.01,-128.5 250.32,-128.5 241.83,-128.5"/>
<polygon fill="black" stroke="black" points="241.61,-125 231.61,-128.5 241.61,-132 241.61,-125"/>
</g>
<!-- EdgeServer4 -->
<g id="node5" class="node">
<title>EdgeServer4</title>
<polygon fill="none" stroke="black" points="142.99,-55.5 142.99,-91.5 231.3,-91.5 231.3,-55.5 142.99,-55.5"/>
<text text-anchor="middle" x="187.15" y="-69.3" font-family="Times,serif" font-size="14.00">EdgeServer4</text>
</g>
<!-- OriginServer&#45;&gt;EdgeServer4 -->
<g id="edge4" class="edge">
<title>OriginServer&#45;&gt;EdgeServer4</title>
<path fill="none" stroke="black" d="M270.67,-110.49C260.18,-105.79 248.75,-100.67 237.84,-95.77"/>
<polygon fill="black" stroke="black" points="238.97,-92.45 228.41,-91.55 236.1,-98.83 238.97,-92.45"/>
</g>
<!-- EdgeServer5 -->
<g id="node6" class="node">
<title>EdgeServer5</title>
<polygon fill="none" stroke="black" points="142.99,-0.5 142.99,-36.5 231.3,-36.5 231.3,-0.5 142.99,-0.5"/>
<text text-anchor="middle" x="187.15" y="-14.3" font-family="Times,serif" font-size="14.00">EdgeServer5</text>
</g>
<!-- OriginServer&#45;&gt;EdgeServer5 -->
<g id="edge5" class="edge">
<title>OriginServer&#45;&gt;EdgeServer5</title>
<path fill="none" stroke="black" d="M295.44,-110.4C280.13,-92.97 255.5,-66.4 231.3,-46.5 229.74,-45.22 228.13,-43.96 226.48,-42.7"/>
<polygon fill="black" stroke="black" points="228.18,-39.62 218.02,-36.62 224.1,-45.3 228.18,-39.62"/>
</g>
<!-- NewYorkUsers -->
<g id="node7" class="node">
<title>NewYorkUsers</title>
<polygon fill="none" stroke="black" points="2.65,-220.5 2.65,-256.5 104.34,-256.5 104.34,-220.5 2.65,-220.5"/>
<text text-anchor="middle" x="53.5" y="-234.3" font-family="Times,serif" font-size="14.00">NewYorkUsers</text>
</g>
<!-- EdgeServer1&#45;&gt;NewYorkUsers -->
<g id="edge6" class="edge">
<title>EdgeServer1&#45;&gt;NewYorkUsers</title>
<path fill="none" stroke="black" d="M142.67,-238.5C133.76,-238.5 124.23,-238.5 114.85,-238.5"/>
<polygon fill="black" stroke="black" points="114.77,-235 104.77,-238.5 114.77,-242 114.77,-235"/>
</g>
<!-- LondonUsers -->
<g id="node8" class="node">
<title>LondonUsers</title>
<polygon fill="none" stroke="black" points="7.78,-165.5 7.78,-201.5 99.21,-201.5 99.21,-165.5 7.78,-165.5"/>
<text text-anchor="middle" x="53.5" y="-179.3" font-family="Times,serif" font-size="14.00">LondonUsers</text>
</g>
<!-- EdgeServer2&#45;&gt;LondonUsers -->
<g id="edge7" class="edge">
<title>EdgeServer2&#45;&gt;LondonUsers</title>
<path fill="none" stroke="black" d="M142.67,-183.5C132.01,-183.5 120.45,-183.5 109.33,-183.5"/>
<polygon fill="black" stroke="black" points="109.27,-180 99.27,-183.5 109.27,-187 109.27,-180"/>
</g>
<!-- ShanghaiUsers -->
<g id="node9" class="node">
<title>ShanghaiUsers</title>
<polygon fill="none" stroke="black" points="3.5,-110.5 3.5,-146.5 103.49,-146.5 103.49,-110.5 3.5,-110.5"/>
<text text-anchor="middle" x="53.5" y="-124.3" font-family="Times,serif" font-size="14.00">ShanghaiUsers</text>
</g>
<!-- EdgeServer3&#45;&gt;ShanghaiUsers -->
<g id="edge8" class="edge">
<title>EdgeServer3&#45;&gt;ShanghaiUsers</title>
<path fill="none" stroke="black" d="M142.67,-128.5C133.45,-128.5 123.55,-128.5 113.85,-128.5"/>
<polygon fill="black" stroke="black" points="113.84,-125 103.84,-128.5 113.84,-132 113.84,-125"/>
</g>
<!-- HongkongUsers -->
<g id="node10" class="node">
<title>HongkongUsers</title>
<polygon fill="none" stroke="black" points="0,-55.5 0,-91.5 106.99,-91.5 106.99,-55.5 0,-55.5"/>
<text text-anchor="middle" x="53.5" y="-69.3" font-family="Times,serif" font-size="14.00">HongkongUsers</text>
</g>
<!-- EdgeServer4&#45;&gt;HongkongUsers -->
<g id="edge9" class="edge">
<title>EdgeServer4&#45;&gt;HongkongUsers</title>
<path fill="none" stroke="black" d="M142.67,-73.5C134.49,-73.5 125.79,-73.5 117.15,-73.5"/>
<polygon fill="black" stroke="black" points="117.09,-70 107.09,-73.5 117.09,-77 117.09,-70"/>
</g>
<!-- TokyoUsers -->
<g id="node11" class="node">
<title>TokyoUsers</title>
<polygon fill="none" stroke="black" points="11.77,-0.5 11.77,-36.5 95.23,-36.5 95.23,-0.5 11.77,-0.5"/>
<text text-anchor="middle" x="53.5" y="-14.3" font-family="Times,serif" font-size="14.00">TokyoUsers</text>
</g>
<!-- EdgeServer5&#45;&gt;TokyoUsers -->
<g id="edge10" class="edge">
<title>EdgeServer5&#45;&gt;TokyoUsers</title>
<path fill="none" stroke="black" d="M142.67,-18.5C130.74,-18.5 117.69,-18.5 105.38,-18.5"/>
<polygon fill="black" stroke="black" points="105.25,-15 95.25,-18.5 105.25,-22 105.25,-15"/>
</g>
</g>
</svg>
