<?xml version="1.0" encoding="UTF-8" standalone="no"?>
<!DOCTYPE svg PUBLIC "-//W3C//DTD SVG 1.1//EN"
 "http://www.w3.org/Graphics/SVG/1.1/DTD/svg11.dtd">
<!-- Generated by graphviz version 2.42.3 (20191010.1750)
 -->
<!-- Title: G Pages: 1 -->
<svg width="206pt" height="260pt"
 viewBox="0.00 0.00 206.00 260.00" xmlns="http://www.w3.org/2000/svg" xmlns:xlink="http://www.w3.org/1999/xlink">
<g id="graph0" class="graph" transform="scale(1 1) rotate(0) translate(4 256)">
<title>G</title>
<polygon fill="white" stroke="transparent" points="-4,4 -4,-256 202,-256 202,4 -4,4"/>
<!-- node0 -->
<g id="node1" class="node">
<title>node0</title>
<text text-anchor="middle" x="135" y="-229.8" font-family="Times,serif" font-size="14.00">f(n)</text>
</g>
<!-- node1 -->
<g id="node2" class="node">
<title>node1</title>
<text text-anchor="middle" x="99" y="-157.8" font-family="Times,serif" font-size="14.00">f(n&#45;2)</text>
</g>
<!-- node0&#45;&gt;node1 -->
<g id="edge1" class="edge">
<title>node0&#45;&gt;node1</title>
<path fill="none" stroke="black" d="M126.1,-215.7C122,-207.73 117.05,-198.1 112.51,-189.26"/>
<polygon fill="black" stroke="black" points="115.48,-187.4 107.8,-180.1 109.26,-190.6 115.48,-187.4"/>
</g>
<!-- node2 -->
<g id="node3" class="node">
<title>node2</title>
<text text-anchor="middle" x="171" y="-157.8" font-family="Times,serif" font-size="14.00">f(n&#45;1)</text>
</g>
<!-- node0&#45;&gt;node2 -->
<g id="edge2" class="edge">
<title>node0&#45;&gt;node2</title>
<path fill="none" stroke="black" d="M143.9,-215.7C148,-207.73 152.95,-198.1 157.49,-189.26"/>
<polygon fill="black" stroke="black" points="160.74,-190.6 162.2,-180.1 154.52,-187.4 160.74,-190.6"/>
</g>
<!-- node3 -->
<g id="node4" class="node">
<title>node3</title>
<text text-anchor="middle" x="63" y="-85.8" font-family="Times,serif" font-size="14.00">f(n&#45;4)</text>
</g>
<!-- node1&#45;&gt;node3 -->
<g id="edge3" class="edge">
<title>node1&#45;&gt;node3</title>
<path fill="none" stroke="black" d="M90.1,-143.7C86,-135.73 81.05,-126.1 76.51,-117.26"/>
<polygon fill="black" stroke="black" points="79.48,-115.4 71.8,-108.1 73.26,-118.6 79.48,-115.4"/>
</g>
<!-- node4 -->
<g id="node5" class="node">
<title>node4</title>
<text text-anchor="middle" x="135" y="-85.8" font-family="Times,serif" font-size="14.00">f(n&#45;3)</text>
</g>
<!-- node1&#45;&gt;node4 -->
<g id="edge4" class="edge">
<title>node1&#45;&gt;node4</title>
<path fill="none" stroke="black" d="M107.9,-143.7C112,-135.73 116.95,-126.1 121.49,-117.26"/>
<polygon fill="black" stroke="black" points="124.74,-118.6 126.2,-108.1 118.52,-115.4 124.74,-118.6"/>
</g>
<!-- node5 -->
<g id="node6" class="node">
<title>node5</title>
<text text-anchor="middle" x="27" y="-13.8" font-family="Times,serif" font-size="14.00">f(n&#45;6)</text>
</g>
<!-- node3&#45;&gt;node5 -->
<g id="edge5" class="edge">
<title>node3&#45;&gt;node5</title>
<path fill="none" stroke="black" d="M54.1,-71.7C50,-63.73 45.05,-54.1 40.51,-45.26"/>
<polygon fill="black" stroke="black" points="43.48,-43.4 35.8,-36.1 37.26,-46.6 43.48,-43.4"/>
</g>
<!-- node6 -->
<g id="node7" class="node">
<title>node6</title>
<text text-anchor="middle" x="99" y="-13.8" font-family="Times,serif" font-size="14.00">f(n&#45;5)</text>
</g>
<!-- node3&#45;&gt;node6 -->
<g id="edge6" class="edge">
<title>node3&#45;&gt;node6</title>
<path fill="none" stroke="black" d="M71.9,-71.7C76,-63.73 80.95,-54.1 85.49,-45.26"/>
<polygon fill="black" stroke="black" points="88.74,-46.6 90.2,-36.1 82.52,-43.4 88.74,-46.6"/>
</g>
</g>
</svg>
