<?xml version="1.0" encoding="UTF-8" standalone="no"?>
<!DOCTYPE svg PUBLIC "-//W3C//DTD SVG 1.1//EN"
 "http://www.w3.org/Graphics/SVG/1.1/DTD/svg11.dtd">
<!-- Generated by graphviz version 2.42.3 (20191010.1750)
 -->
<!-- Title: G Pages: 1 -->
<svg width="566pt" height="260pt"
 viewBox="0.00 0.00 566.00 260.00" xmlns="http://www.w3.org/2000/svg" xmlns:xlink="http://www.w3.org/1999/xlink">
<g id="graph0" class="graph" transform="scale(1 1) rotate(0) translate(4 256)">
<title>G</title>
<polygon fill="white" stroke="transparent" points="-4,4 -4,-256 562,-256 562,4 -4,4"/>
<!-- node0 -->
<g id="node1" class="node">
<title>node0</title>
<text text-anchor="middle" x="279" y="-229.8" font-family="Times,serif" font-size="14.00">f(n)</text>
</g>
<!-- node1 -->
<g id="node2" class="node">
<title>node1</title>
<text text-anchor="middle" x="207" y="-157.8" font-family="Times,serif" font-size="14.00">f(n&#45;2)</text>
</g>
<!-- node0&#45;&gt;node1 -->
<g id="edge1" class="edge">
<title>node0&#45;&gt;node1</title>
<path fill="none" stroke="black" d="M261.2,-215.7C252.4,-207.14 241.62,-196.66 232,-187.3"/>
<polygon fill="black" stroke="black" points="234.2,-184.57 224.59,-180.1 229.32,-189.58 234.2,-184.57"/>
</g>
<!-- node2 -->
<g id="node3" class="node">
<title>node2</title>
<text text-anchor="middle" x="351" y="-157.8" font-family="Times,serif" font-size="14.00">f(n&#45;1)</text>
</g>
<!-- node0&#45;&gt;node2 -->
<g id="edge2" class="edge">
<title>node0&#45;&gt;node2</title>
<path fill="none" stroke="black" d="M296.8,-215.7C305.6,-207.14 316.38,-196.66 326,-187.3"/>
<polygon fill="black" stroke="black" points="328.68,-189.58 333.41,-180.1 323.8,-184.57 328.68,-189.58"/>
</g>
<!-- node3 -->
<g id="node4" class="node">
<title>node3</title>
<text text-anchor="middle" x="99" y="-85.8" font-family="Times,serif" font-size="14.00">f(n&#45;4)</text>
</g>
<!-- node1&#45;&gt;node3 -->
<g id="edge3" class="edge">
<title>node1&#45;&gt;node3</title>
<path fill="none" stroke="black" d="M180.58,-143.88C166.59,-134.81 149.22,-123.55 134.11,-113.76"/>
<polygon fill="black" stroke="black" points="135.82,-110.69 125.52,-108.19 132.01,-116.57 135.82,-110.69"/>
</g>
<!-- node4 -->
<g id="node5" class="node">
<title>node4</title>
<text text-anchor="middle" x="207" y="-85.8" font-family="Times,serif" font-size="14.00">f(n&#45;3)</text>
</g>
<!-- node1&#45;&gt;node4 -->
<g id="edge4" class="edge">
<title>node1&#45;&gt;node4</title>
<path fill="none" stroke="black" d="M207,-143.7C207,-135.98 207,-126.71 207,-118.11"/>
<polygon fill="black" stroke="black" points="210.5,-118.1 207,-108.1 203.5,-118.1 210.5,-118.1"/>
</g>
<!-- node7 -->
<g id="node10" class="node">
<title>node7</title>
<text text-anchor="middle" x="351" y="-85.8" font-family="Times,serif" font-size="14.00">f(n&#45;3)</text>
</g>
<!-- node2&#45;&gt;node7 -->
<g id="edge7" class="edge">
<title>node2&#45;&gt;node7</title>
<path fill="none" stroke="black" d="M351,-143.7C351,-135.98 351,-126.71 351,-118.11"/>
<polygon fill="black" stroke="black" points="354.5,-118.1 351,-108.1 347.5,-118.1 354.5,-118.1"/>
</g>
<!-- node8 -->
<g id="node11" class="node">
<title>node8</title>
<text text-anchor="middle" x="459" y="-85.8" font-family="Times,serif" font-size="14.00">f(n&#45;2)</text>
</g>
<!-- node2&#45;&gt;node8 -->
<g id="edge8" class="edge">
<title>node2&#45;&gt;node8</title>
<path fill="none" stroke="black" d="M377.42,-143.88C391.41,-134.81 408.78,-123.55 423.89,-113.76"/>
<polygon fill="black" stroke="black" points="425.99,-116.57 432.48,-108.19 422.18,-110.69 425.99,-116.57"/>
</g>
<!-- node5 -->
<g id="node6" class="node">
<title>node5</title>
<text text-anchor="middle" x="27" y="-13.8" font-family="Times,serif" font-size="14.00">f(n&#45;6)</text>
</g>
<!-- node3&#45;&gt;node5 -->
<g id="edge5" class="edge">
<title>node3&#45;&gt;node5</title>
<path fill="none" stroke="black" d="M81.2,-71.7C72.4,-63.14 61.62,-52.66 52,-43.3"/>
<polygon fill="black" stroke="black" points="54.2,-40.57 44.59,-36.1 49.32,-45.58 54.2,-40.57"/>
</g>
<!-- node6 -->
<g id="node7" class="node">
<title>node6</title>
<text text-anchor="middle" x="99" y="-13.8" font-family="Times,serif" font-size="14.00">f(n&#45;5)</text>
</g>
<!-- node3&#45;&gt;node6 -->
<g id="edge6" class="edge">
<title>node3&#45;&gt;node6</title>
<path fill="none" stroke="black" d="M99,-71.7C99,-63.98 99,-54.71 99,-46.11"/>
<polygon fill="black" stroke="black" points="102.5,-46.1 99,-36.1 95.5,-46.1 102.5,-46.1"/>
</g>
<!-- node9 -->
<g id="node8" class="node">
<title>node9</title>
<text text-anchor="middle" x="171" y="-13.8" font-family="Times,serif" font-size="14.00">f(n&#45;5)</text>
</g>
<!-- node4&#45;&gt;node9 -->
<g id="edge9" class="edge">
<title>node4&#45;&gt;node9</title>
<path fill="none" stroke="black" d="M198.1,-71.7C194,-63.73 189.05,-54.1 184.51,-45.26"/>
<polygon fill="black" stroke="black" points="187.48,-43.4 179.8,-36.1 181.26,-46.6 187.48,-43.4"/>
</g>
<!-- node10 -->
<g id="node9" class="node">
<title>node10</title>
<text text-anchor="middle" x="243" y="-13.8" font-family="Times,serif" font-size="14.00">f(n&#45;4)</text>
</g>
<!-- node4&#45;&gt;node10 -->
<g id="edge10" class="edge">
<title>node4&#45;&gt;node10</title>
<path fill="none" stroke="black" d="M215.9,-71.7C220,-63.73 224.95,-54.1 229.49,-45.26"/>
<polygon fill="black" stroke="black" points="232.74,-46.6 234.2,-36.1 226.52,-43.4 232.74,-46.6"/>
</g>
<!-- node11 -->
<g id="node12" class="node">
<title>node11</title>
<text text-anchor="middle" x="315" y="-13.8" font-family="Times,serif" font-size="14.00">f(n&#45;5)</text>
</g>
<!-- node7&#45;&gt;node11 -->
<g id="edge11" class="edge">
<title>node7&#45;&gt;node11</title>
<path fill="none" stroke="black" d="M342.1,-71.7C338,-63.73 333.05,-54.1 328.51,-45.26"/>
<polygon fill="black" stroke="black" points="331.48,-43.4 323.8,-36.1 325.26,-46.6 331.48,-43.4"/>
</g>
<!-- node12 -->
<g id="node13" class="node">
<title>node12</title>
<text text-anchor="middle" x="387" y="-13.8" font-family="Times,serif" font-size="14.00">f(n&#45;4)</text>
</g>
<!-- node7&#45;&gt;node12 -->
<g id="edge12" class="edge">
<title>node7&#45;&gt;node12</title>
<path fill="none" stroke="black" d="M359.9,-71.7C364,-63.73 368.95,-54.1 373.49,-45.26"/>
<polygon fill="black" stroke="black" points="376.74,-46.6 378.2,-36.1 370.52,-43.4 376.74,-46.6"/>
</g>
<!-- node13 -->
<g id="node14" class="node">
<title>node13</title>
<text text-anchor="middle" x="459" y="-13.8" font-family="Times,serif" font-size="14.00">f(n&#45;4)</text>
</g>
<!-- node8&#45;&gt;node13 -->
<g id="edge13" class="edge">
<title>node8&#45;&gt;node13</title>
<path fill="none" stroke="black" d="M459,-71.7C459,-63.98 459,-54.71 459,-46.11"/>
<polygon fill="black" stroke="black" points="462.5,-46.1 459,-36.1 455.5,-46.1 462.5,-46.1"/>
</g>
<!-- node14 -->
<g id="node15" class="node">
<title>node14</title>
<text text-anchor="middle" x="531" y="-13.8" font-family="Times,serif" font-size="14.00">f(n&#45;3)</text>
</g>
<!-- node8&#45;&gt;node14 -->
<g id="edge14" class="edge">
<title>node8&#45;&gt;node14</title>
<path fill="none" stroke="black" d="M476.8,-71.7C485.6,-63.14 496.38,-52.66 506,-43.3"/>
<polygon fill="black" stroke="black" points="508.68,-45.58 513.41,-36.1 503.8,-40.57 508.68,-45.58"/>
</g>
</g>
</svg>
